<?xml version="1.0" encoding="utf-8"?>
<svg xmlns="http://www.w3.org/2000/svg" xmlns:xlink="http://www.w3.org/1999/xlink" style="margin: auto; background: rgb(0, 0, 0); display: block; z-index: 1; position: relative; shape-rendering: auto;" width="2560" height="1279" preserveAspectRatio="xMidYMid" viewBox="0 0 2560 1279">
<g transform="translate(1280,639.5) scale(1,1) translate(-1280,-639.5)"><g transform="translate(1987.9788910886186,90.33527992693314) scale(100)" opacity="0.4">
  <path d="M8.6912 0 C8.6912 2.0608 8.677563885611844 3.757330314348885 7.466256037687516 5.424552536356777 S4.645665770292596 7.629000172416546 2.6857285015115435 8.265822394424438 S-0.891918768906462 9.413932599592608 -2.8518560376875146 8.777110377584716 S-5.820020653587214 6.775781406732236 -7.031328501511543 5.108559184724344 S-9.228800000000001 2.0608000000000013 -9.228800000000001 1.1302020379971095e-15 S-8.242636349435873 -3.4413369627164503 -7.0313285015115445 -5.108559184724342 S-4.8117933064685685 -8.140288155576823 -2.8518560376875164 -8.777110377584714 S0.7257912327304887 -8.902644616432331 2.6857285015115413 -8.26582239442444 S6.254948189763185 -7.09177475836467 7.466256037687515 -5.424552536356779 S8.6912 -2.060800000000002 8.6912 -2.1287300521498954e-15" fill="#220b09" stroke-width="0">
    <animateTransform attributeName="transform" type="rotate" dur="20s" repeatCount="indefinite" values="0;72"></animateTransform>
  </path>
</g><g transform="translate(2129.5746693063425,-19.497664087680278) scale(100)" opacity="0.4">
  <path d="M10.42944 0 C10.42944 2.47296 10.413076662734214 4.508796377218662 8.95950724522502 6.509463043628132 S5.574798924351114 9.154800206899855 3.222874201813852 9.918986873309326 S-1.0703025226877543 11.29671911951113 -3.4222272452250175 10.532532453101659 S-6.984024784304655 8.130937688078681 -8.43759420181385 6.130271021669212 S-11.074560000000002 2.4729600000000014 -11.074560000000002 1.3562424455965314e-15 S-9.891163619323049 -4.1296043552597395 -8.437594201813853 -6.13027102166921 S-5.774151967762283 -9.768345786692187 -3.4222272452250198 -10.532532453101657 S0.8709494792765864 -10.683173539718798 3.2228742018138496 -9.918986873309327 S7.505937827715822 -8.510129710037605 8.959507245225018 -6.509463043628135 S10.42944 -2.4729600000000027 10.42944 -2.554476062579874e-15" fill="#762824" stroke-width="0">
    <animateTransform attributeName="transform" type="rotate" dur="10s" repeatCount="indefinite" values="0;72"></animateTransform>
  </path>
</g><g transform="translate(2469.4045370288795,-283.09672972275223) scale(100)" opacity="0.4">
  <path d="M14.601215999999999 0 C14.601215999999999 3.4621439999999994 14.578307327827897 6.312314928106127 12.543310143315026 9.113248261079384 S7.80471849409156 12.816720289659798 4.512023882539393 13.886581622633056 S-1.4984235317628558 15.815406767315578 -4.791118143315024 14.74554543434232 S-9.777634698026517 11.383312763310153 -11.81263188253939 8.582379430336896 S-15.504384 3.462144000000001 -15.504384 1.8987394238351438e-15 S-13.847629067052265 -5.781446097363634 -11.812631882539394 -8.582379430336893 S-8.083812754867195 -13.675684101369061 -4.791118143315027 -14.745545434342318 S1.2193292709872212 -14.956442955606315 4.512023882539389 -13.886581622633058 S10.50831295880215 -11.914181594052645 12.543310143315024 -9.113248261079388 S14.601215999999999 -3.462144000000003 14.601215999999999 -3.576266487611824e-15" fill="#d34c31" stroke-width="0">
    <animateTransform attributeName="transform" type="rotate" dur="6.666666666666666s" repeatCount="indefinite" values="0;72"></animateTransform>
  </path>
</g></g>
</svg>